PathFileType	4	(X/Y/Z)	OpenSim_Sub03_EMGBaseline_Magnet.trc
DataRate	CameraRate	NumFrames	NumMarkers	Units	OrigDataRate	OrigDataStartFrame	OrigNumFrames
100	100	27	8	m	100	6451	7372
Frame#	Time	torso_imu_offset_imu	pelvis_imu_offset_imu	tibia_r_imu_offset_imu	femur_r_imu_offset_imu	tibia_l_imu_offset_imu	femur_l_imu_offset_imu	toes_r_imu_offset_imu	toes_l_imu_offset_imu
				X1	Y1	Z1	X2	Y2	Z2	X3	Y3	Z3	X4	Y4	Z4	X5	Y5	Z5	X6	Y6	Z6	X7	Y7	Z7	X8		Y8	Z8	

6451	64.50000000	-0.92447867	-0.15962962	0.12358408	-0.74284413	0.09424059	-0.58336353	-0.61425175	-0.51540306	0.07401371	-0.67960277	-0.42264157	0.22222811	-0.26025373	0.77922145	-0.01406931	-0.80279158	0.20917361	0.13387634	-0.71954061	-0.10912546	-0.30635516	-0.74753776	0.09242878	0.26631211
6452	64.51000000	-0.92239510	-0.16613148	0.12487355	-0.74489393	0.09557980	-0.58130177	-0.61278910	-0.51961420	0.07146669	-0.67876159	-0.43245646	0.21723195	-0.27839325	0.77223461	0.00078573	-0.80769091	0.20107350	0.14219089	-0.71762117	-0.11358962	-0.30680276	-0.75528856	0.08165036	0.24933297
6453	64.52000000	-0.92030185	-0.16711578	0.12736400	-0.74502021	0.09371632	-0.58446440	-0.61155751	-0.52559128	0.06900365	-0.67720308	-0.43780464	0.21624238	-0.29420485	0.76542810	0.01598730	-0.80730902	0.19024160	0.14077109	-0.72330729	-0.11351992	-0.30383762	-0.76291129	0.06627937	0.22819642
6454	64.53000000	-0.91874345	-0.16155959	0.12905766	-0.74853097	0.09392515	-0.58955921	-0.60833847	-0.52969099	0.06499752	-0.67254683	-0.43664428	0.21256326	-0.31775794	0.75571453	0.02934694	-0.81160466	0.17740026	0.14150635	-0.72069861	-0.11254509	-0.29714539	-0.77572910	0.05439371	0.19878059
6455	64.54000000	-0.92040547	-0.16388603	0.13239517	-0.74591520	0.09393999	-0.58398420	-0.60108063	-0.53621366	0.06830814	-0.67404544	-0.44169525	0.21379845	-0.34258355	0.74706750	0.03602410	-0.80888819	0.16780283	0.14641034	-0.72156513	-0.11567625	-0.30318517	-0.79038593	0.04765982	0.16563114
6456	64.55000000	-0.91947400	-0.16996345	0.13657206	-0.74426903	0.09334967	-0.58863751	-0.59848468	-0.53913077	0.06527479	-0.67414686	-0.44630827	0.20613869	-0.36637810	0.73325675	0.04210473	-0.81766966	0.15903869	0.14491290	-0.72380722	-0.11534220	-0.29768558	-0.79350180	0.03429919	0.13431696
6457	64.56000000	-0.91707465	-0.16730956	0.13817737	-0.74902856	0.09096589	-0.59130832	-0.59253268	-0.54530135	0.06445363	-0.67372555	-0.45270819	0.20086433	-0.39059712	0.71927583	0.03921825	-0.82035980	0.15055243	0.13933893	-0.72205154	-0.11586924	-0.29258705	-0.79522827	0.02600070	0.10229391
6458	64.57000000	-0.91987853	-0.16549976	0.14089446	-0.74518806	0.09444958	-0.58653958	-0.59030667	-0.54910252	0.06300940	-0.67158935	-0.45930141	0.20471601	-0.41083510	0.70442773	0.03542762	-0.81645814	0.14100961	0.14691873	-0.72141648	-0.11752858	-0.29295256	-0.80373657	0.02254134	0.06272119
6459	64.58000000	-0.91712969	-0.16952571	0.14113869	-0.74520172	0.09807721	-0.59033345	-0.58684341	-0.55396541	0.06049942	-0.66669935	-0.46368855	0.19656742	-0.43696836	0.69084889	0.03200209	-0.81643859	0.13100090	0.15237984	-0.72582181	-0.11299286	-0.29337041	-0.80959939	0.01914337	0.02582231
6460	64.59000000	-0.91485960	-0.16547519	0.14673162	-0.74177904	0.09500614	-0.59094337	-0.58618614	-0.56079335	0.06234127	-0.66982074	-0.46636144	0.19546715	-0.46245761	0.67375724	0.02469389	-0.82167886	0.12747236	0.15198417	-0.72920717	-0.11808272	-0.28735325	-0.80286650	0.02101395	-0.00998452
6461	64.60000000	-0.91822297	-0.16918051	0.15670654	-0.73891463	0.09293033	-0.58790075	-0.57988952	-0.57043996	0.05499380	-0.65875539	-0.46956366	0.19668570	-0.48591581	0.65248436	0.02387992	-0.81859882	0.12194150	0.15228669	-0.72743574	-0.12194697	-0.28741473	-0.80053377	0.01243530	-0.04627072
6462	64.61000000	-0.91779642	-0.16545170	0.15362807	-0.74342436	0.09219224	-0.59681682	-0.57933093	-0.57429202	0.05254562	-0.65810529	-0.47303764	0.19008109	-0.51082999	0.63149801	0.01986735	-0.81708972	0.11733953	0.15583112	-0.72939358	-0.11775681	-0.28873921	-0.79915980	0.00514268	-0.08144150
6463	64.62000000	-0.91906841	-0.16592040	0.15348905	-0.74076494	0.09530462	-0.60093362	-0.57919664	-0.57344711	0.04856054	-0.65884550	-0.47933624	0.18924187	-0.53748473	0.61066546	0.02624163	-0.82070645	0.11758481	0.15507775	-0.72651133	-0.11929962	-0.28569983	-0.79302128	0.00187132	-0.12015570
6464	64.63000000	-0.91836588	-0.16543677	0.15562972	-0.73749892	0.09554486	-0.59544714	-0.57380238	-0.57831055	0.04813179	-0.65699613	-0.48119573	0.18580792	-0.56284983	0.58375285	0.04341209	-0.81664513	0.11575771	0.15563658	-0.73374260	-0.12116784	-0.28274929	-0.78671179	-0.00833049	-0.15656397
6465	64.64000000	-0.91237029	-0.16273710	0.15958205	-0.73933991	0.09358064	-0.59500551	-0.56687103	-0.58337386	0.05129274	-0.65521496	-0.48245609	0.18769110	-0.58515611	0.55628559	0.05227561	-0.81635546	0.12002570	0.15992008	-0.73483133	-0.11966903	-0.27586385	-0.78164116	-0.01984788	-0.18525145
6466	64.65000000	-0.91612266	-0.16589929	0.15986160	-0.73875729	0.09471176	-0.59327943	-0.56042008	-0.58848595	0.04756532	-0.64920563	-0.48704486	0.18697831	-0.60771594	0.52729481	0.06328390	-0.81529842	0.11803617	0.16072990	-0.72954327	-0.11985948	-0.27452759	-0.77195074	-0.03330461	-0.21710348
6467	64.66000000	-0.91709398	-0.16756794	0.15895680	-0.73596957	0.09740874	-0.59508261	-0.55598575	-0.58938412	0.04790222	-0.65286528	-0.49143624	0.18000327	-0.62989327	0.50060632	0.06984284	-0.81835277	0.12336311	0.16390888	-0.73664316	-0.12401376	-0.27318436	-0.76141534	-0.05116668	-0.24868133
6468	64.67000000	-0.91697886	-0.16502520	0.16556753	-0.73449923	0.10318367	-0.59996646	-0.55665158	-0.59436222	0.04851419	-0.65342085	-0.49404156	0.18088984	-0.64975441	0.47424830	0.08133381	-0.82050185	0.13077098	0.17147678	-0.73877212	-0.12573858	-0.27210216	-0.75435155	-0.07389568	-0.27160446
6469	64.68000000	-0.91694257	-0.16321039	0.16525716	-0.73193105	0.10119656	-0.59539768	-0.54673228	-0.60199350	0.04239707	-0.64840053	-0.49892845	0.17742433	-0.67031318	0.43866438	0.09100961	-0.81772264	0.13068692	0.16745166	-0.73487884	-0.12766641	-0.26656795	-0.74142848	-0.08882441	-0.28959273
6470	64.69000000	-0.91707787	-0.16413649	0.16851444	-0.72940176	0.10270061	-0.59686537	-0.54392174	-0.60424332	0.03668593	-0.64558105	-0.50463695	0.17272969	-0.68440334	0.40997516	0.09428402	-0.81661933	0.13199315	0.16564979	-0.74004956	-0.13001665	-0.26031476	-0.72702994	-0.10825858	-0.32091427
6471	64.70000000	-0.91129199	-0.16307298	0.16751976	-0.73122761	0.11037391	-0.59901062	-0.54607041	-0.60822755	0.03238862	-0.64548463	-0.50429172	0.16940396	-0.69939434	0.38624002	0.09251655	-0.82041766	0.13455642	0.16396598	-0.74016314	-0.13076537	-0.25912338	-0.71715071	-0.13305984	-0.34763010
6472	64.71000000	-0.91227472	-0.16524090	0.16665713	-0.73463006	0.10791455	-0.59918923	-0.53988968	-0.61916573	0.03511709	-0.64342822	-0.50675688	0.16560825	-0.71291585	0.36150955	0.09298033	-0.81415839	0.13915229	0.17050562	-0.74189044	-0.12808449	-0.25470186	-0.70440036	-0.14739095	-0.36740521
6473	64.72000000	-0.91884738	-0.16425888	0.17247250	-0.73033062	0.11546426	-0.60141206	-0.53129671	-0.62485501	0.03266703	-0.64333395	-0.50941279	0.15872484	-0.72370442	0.33498166	0.09315931	-0.80816709	0.14033086	0.17994933	-0.74034958	-0.13273438	-0.24715536	-0.68969253	-0.15897937	-0.38445791
6474	64.73000000	-0.91393600	-0.16675918	0.17188659	-0.73124934	0.11781319	-0.59666176	-0.52329868	-0.62128730	0.02757722	-0.64036001	-0.51969031	0.15642592	-0.74060862	0.31254242	0.09430713	-0.80957929	0.14369906	0.17753939	-0.73635827	-0.13618948	-0.24788987	-0.67914104	-0.16803809	-0.40717701
6475	64.74000000	-0.91512772	-0.16779960	0.17459813	-0.72747612	0.12138672	-0.60060272	-0.52363707	-0.62642782	0.03114027	-0.64285373	-0.52097966	0.15151164	-0.74617963	0.29024311	0.09573105	-0.80850543	0.14854431	0.17675219	-0.74468106	-0.13443185	-0.24435453	-0.66385787	-0.18225905	-0.43334361
6476	64.75000000	-0.91418251	-0.16436583	0.17292154	-0.72858019	0.12292559	-0.60033566	-0.51995624	-0.63478674	0.02493874	-0.64148509	-0.51488261	0.14874744	-0.74870065	0.26825100	0.09783682	-0.80731821	0.15594368	0.18541944	-0.74779525	-0.14269831	-0.24019621	-0.65063609	-0.18814844	-0.44553133
6477	64.76000000	-0.91114920	-0.17054149	0.17552570	-0.72763579	0.12175840	-0.59578605	-0.51126735	-0.64022281	0.02180801	-0.64046407	-0.52250776	0.14676859	-0.75550035	0.24779626	0.09842990	-0.80675659	0.16186091	0.18888602	-0.74393065	-0.14545808	-0.23500687	-0.64323908	-0.19259772	-0.46040663
